<svg width="857" height="859" viewBox="0 0 857 859" fill="none" xmlns="http://www.w3.org/2000/svg">
<path fill-rule="evenodd" clip-rule="evenodd" d="M634.841 275.17C549.246 161.945 387.925 139.658 274.519 225.39C161.113 311.122 138.567 472.407 224.161 585.632C309.756 698.856 471.077 721.143 584.483 635.412C697.889 549.68 720.435 388.394 634.841 275.17ZM565.305 524.108C577.686 522.832 586.218 518.597 590.748 511.764C590.949 511.461 591.142 511.152 591.327 510.838C587.399 499.587 580.003 486.741 569.53 472.987C550.802 448.391 522.522 421.267 487.715 395.676L491.248 406.177L491.257 406.183L527.348 513.468C525.581 513.063 523.784 512.626 521.956 512.158C489.45 503.833 449.24 485.932 408.121 459.946L431.004 436.305L434.389 439.749L466.027 472.713L433.084 367.563L433.16 367.607L432.12 364.474L429.548 370.84L401.902 455.958C400.537 455.07 399.172 454.174 397.807 453.269C385.906 445.38 374.627 437.259 364.067 429.042L393 346.805L393.305 346.944L395.475 340.803C375.267 331.503 356.119 324.542 338.957 320.146C320.863 315.512 305.143 313.773 292.79 315.047C280.409 316.323 271.877 320.557 267.347 327.39C267.146 327.694 266.953 328.002 266.768 328.316C270.696 339.567 278.092 352.413 288.565 366.168C311.178 395.866 347.718 429.25 392.858 459.172C437.998 489.094 482.978 509.746 519.138 519.008C537.232 523.642 552.952 525.381 565.305 524.108ZM486.059 390.755C540.81 430.368 580.287 474.101 593.111 507.011C595.331 500.751 595.074 492.876 592.208 483.523C588.569 471.649 580.846 457.847 569.53 442.987C569.446 442.876 569.362 442.766 569.278 442.656C568.061 443.255 566.553 442.929 565.707 441.809C564.88 440.715 564.953 439.222 565.802 438.215C544.661 411.815 513.004 382.868 474.437 356.21L477.838 366.319L477.849 366.327L485.692 389.643L485.683 389.636L486.059 390.755ZM568.94 437.339C546.981 409.64 513.572 379.212 472.845 351.48L472.496 350.441L472.507 350.449L436.102 242.229L431.004 238.785L419.351 271.907C419.271 271.742 419.173 271.583 419.059 271.431C418.099 270.162 416.291 269.912 415.019 270.873C413.748 271.834 413.495 273.642 414.455 274.911C415.293 276.02 416.78 276.351 417.99 275.776L405.392 311.584L405.742 311.753L405.563 312.259C338.484 279.635 280.97 271.409 264.847 295.733C259.408 303.937 259.214 315.036 263.501 328.026C249.272 355.61 286.847 411.261 352.042 463.221L321.831 549.09L359.068 587.833L427.656 513.905C431.095 515.822 434.52 517.682 437.926 519.483L502.094 587.833L533.449 555.21C562.529 560.407 584.285 556.944 593.248 543.421C598.687 535.217 598.881 524.119 594.594 511.128C602.96 494.91 593.418 468.989 570.883 439.821C570.839 439.297 570.651 438.779 570.311 438.328C569.949 437.851 569.468 437.517 568.94 437.339ZM396.651 337.478L396.479 337.963C334.331 309.409 281.905 302.722 265.598 324.663C262.275 313.215 262.941 304.038 267.347 297.39C271.877 290.557 280.409 286.323 292.79 285.047C305.143 283.773 320.863 285.512 338.957 290.146C358.67 295.195 381.005 303.63 404.557 315.106L402.389 321.241L402.052 321.077L396.333 337.333L396.651 337.478ZM264.984 332.143C276.875 362.656 311.677 402.475 360.322 439.686L355.818 452.487C368.688 462.935 382.749 473.288 397.807 483.269C442.473 512.877 486.737 533.138 521.956 542.158C527.663 543.62 533.074 544.771 538.164 545.621L531.155 524.785C560.59 530.429 582.856 527.463 592.497 514.491C595.82 525.939 595.154 535.116 590.748 541.764C586.218 548.597 577.686 552.832 565.305 554.108C552.952 555.381 537.232 553.642 519.138 549.008C482.978 539.746 437.998 519.094 392.858 489.172C347.718 459.25 311.178 425.866 288.565 396.168C277.249 381.307 269.526 367.506 265.887 355.632C263.021 346.279 262.764 338.404 264.984 332.143ZM396.812 471.628L398.5 466.432C399.188 466.873 399.877 467.313 400.566 467.75L396.812 471.628ZM275.056 566.181C274.097 564.911 272.288 564.661 271.017 565.623C269.746 566.584 269.493 568.392 270.452 569.661C271.412 570.931 273.22 571.18 274.492 570.219C275.763 569.258 276.016 567.45 275.056 566.181ZM256.248 539.706C257.52 538.745 259.328 538.995 260.288 540.264C261.247 541.533 260.995 543.341 259.723 544.303C258.452 545.264 256.643 545.014 255.684 543.745C254.724 542.475 254.977 540.667 256.248 539.706ZM278.633 477.756C277.673 476.487 275.865 476.237 274.594 477.198C273.322 478.159 273.069 479.968 274.029 481.237C274.989 482.506 276.797 482.756 278.069 481.795C279.34 480.834 279.593 479.026 278.633 477.756ZM617.789 484.545C619.061 483.583 620.869 483.833 621.829 485.103C622.788 486.372 622.536 488.18 621.264 489.141C619.993 490.102 618.184 489.852 617.225 488.583C616.265 487.314 616.518 485.506 617.789 484.545ZM635.728 465.205C634.768 463.935 632.96 463.686 631.688 464.647C630.417 465.608 630.164 467.416 631.124 468.685C632.083 469.955 633.892 470.204 635.163 469.243C636.435 468.282 636.687 466.474 635.728 465.205ZM638.015 505.557C638.967 504.837 640.322 505.024 641.04 505.975C641.759 506.925 641.57 508.279 640.617 508.999C639.665 509.719 638.311 509.532 637.592 508.581C636.874 507.631 637.063 506.277 638.015 505.557ZM606.566 385.156C605.845 384.203 604.487 384.015 603.532 384.737C602.577 385.459 602.387 386.817 603.108 387.771C603.829 388.724 605.187 388.912 606.142 388.19C607.097 387.468 607.287 386.11 606.566 385.156ZM462.217 261.206C463.169 260.486 464.523 260.673 465.242 261.624C465.961 262.575 465.771 263.929 464.819 264.649C463.867 265.368 462.513 265.181 461.794 264.231C461.075 263.28 461.265 261.926 462.217 261.206ZM386.695 254.057C385.974 253.103 384.615 252.916 383.661 253.638C382.706 254.359 382.516 255.718 383.237 256.671C383.957 257.624 385.316 257.812 386.271 257.09C387.226 256.368 387.415 255.01 386.695 254.057ZM378.031 586.037C378.984 585.318 380.338 585.505 381.057 586.455C381.775 587.406 381.586 588.76 380.634 589.48C379.682 590.199 378.327 590.012 377.609 589.062C376.89 588.111 377.079 586.757 378.031 586.037ZM311.123 565.642C310.404 564.692 309.05 564.505 308.098 565.224C307.146 565.944 306.956 567.298 307.675 568.249C308.394 569.199 309.748 569.387 310.7 568.667C311.652 567.947 311.841 566.593 311.123 565.642ZM308.571 572.869C309.523 572.149 310.877 572.336 311.596 573.287C312.315 574.237 312.125 575.591 311.173 576.311C310.221 577.031 308.867 576.844 308.148 575.893C307.43 574.943 307.619 573.589 308.571 572.869ZM311.695 580.436C310.977 579.485 309.622 579.298 308.67 580.018C307.718 580.738 307.529 582.092 308.247 583.043C308.966 583.993 310.32 584.18 311.272 583.46C312.224 582.741 312.414 581.387 311.695 580.436ZM381.378 571.95C382.33 571.23 383.684 571.417 384.403 572.368C385.122 573.318 384.932 574.672 383.98 575.392C383.028 576.112 381.674 575.925 380.955 574.974C380.236 574.024 380.426 572.67 381.378 571.95ZM242.451 571.149C241.733 570.198 240.378 570.011 239.426 570.731C238.474 571.451 238.285 572.805 239.004 573.755C239.722 574.706 241.077 574.893 242.029 574.173C242.981 573.453 243.17 572.099 242.451 571.149ZM280.574 521.798C281.527 521.078 282.881 521.265 283.6 522.216C284.318 523.166 284.129 524.52 283.177 525.24C282.225 525.96 280.87 525.773 280.152 524.822C279.433 523.872 279.622 522.517 280.574 521.798ZM287.415 547.447C286.696 546.496 285.342 546.309 284.39 547.029C283.438 547.748 283.249 549.103 283.967 550.053C284.686 551.004 286.04 551.191 286.992 550.471C287.944 549.751 288.134 548.397 287.415 547.447ZM320.76 567.692C321.712 566.972 323.066 567.159 323.785 568.11C324.504 569.06 324.314 570.414 323.362 571.134C322.41 571.854 321.056 571.667 320.337 570.716C319.618 569.766 319.808 568.412 320.76 567.692ZM504.616 219.032C503.897 218.082 502.543 217.895 501.591 218.614C500.639 219.334 500.449 220.688 501.168 221.639C501.886 222.589 503.241 222.777 504.193 222.057C505.145 221.337 505.334 219.983 504.616 219.032ZM632.086 479.21C633.041 478.488 634.399 478.676 635.12 479.629C635.841 480.583 635.651 481.941 634.696 482.663C633.741 483.385 632.383 483.197 631.662 482.244C630.941 481.29 631.131 479.932 632.086 479.21ZM566.793 342.988C566.072 342.034 564.714 341.846 563.759 342.568C562.804 343.29 562.614 344.648 563.335 345.602C564.056 346.555 565.414 346.743 566.369 346.021C567.324 345.299 567.514 343.941 566.793 342.988ZM603.747 444.595C604.702 443.873 606.06 444.06 606.781 445.014C607.502 445.967 607.312 447.325 606.357 448.047C605.402 448.769 604.044 448.581 603.323 447.628C602.602 446.675 602.792 445.317 603.747 444.595ZM619.88 411.691C619.159 410.737 617.801 410.55 616.846 411.272C615.891 411.993 615.701 413.352 616.422 414.305C617.143 415.258 618.501 415.446 619.456 414.724C620.411 414.002 620.601 412.644 619.88 411.691ZM518.568 313.171C519.52 312.452 520.874 312.639 521.593 313.589C522.312 314.54 522.122 315.894 521.17 316.614C520.218 317.334 518.864 317.146 518.145 316.196C517.426 315.245 517.616 313.891 518.568 313.171ZM424.978 216.817C425.93 216.097 427.284 216.284 428.003 217.235C428.722 218.185 428.532 219.539 427.58 220.259C426.628 220.979 425.274 220.792 424.555 219.841C423.836 218.891 424.026 217.537 424.978 216.817ZM426.204 194.034C425.486 193.083 424.131 192.896 423.179 193.616C422.227 194.336 422.038 195.69 422.756 196.64C423.475 197.591 424.83 197.778 425.782 197.058C426.734 196.339 426.923 194.985 426.204 194.034ZM393.92 211.698C394.872 210.978 396.226 211.165 396.945 212.116C397.663 213.067 397.474 214.421 396.522 215.14C395.57 215.86 394.215 215.673 393.497 214.722C392.778 213.772 392.967 212.418 393.92 211.698ZM530.632 469.351C529.913 468.401 528.559 468.214 527.607 468.934C526.655 469.653 526.465 471.007 527.184 471.958C527.903 472.909 529.257 473.096 530.209 472.376C531.161 471.656 531.351 470.302 530.632 469.351ZM589.045 402.495C588.085 401.226 586.276 400.976 585.005 401.937C583.734 402.898 583.481 404.707 584.441 405.976C585.4 407.245 587.209 407.495 588.48 406.534C589.751 405.573 590.004 403.765 589.045 402.495ZM385.473 203.396C384.513 202.126 382.705 201.877 381.433 202.838C380.162 203.799 379.909 205.607 380.869 206.876C381.828 208.146 383.637 208.396 384.908 207.434C386.18 206.473 386.432 204.665 385.473 203.396ZM391.089 241.77C392.36 240.809 394.169 241.058 395.128 242.328C396.088 243.597 395.835 245.405 394.564 246.366C393.292 247.328 391.484 247.078 390.524 245.808C389.565 244.539 389.818 242.731 391.089 241.77ZM223.853 507.37L228.721 512.671C229.915 512.082 231.361 512.304 232.34 513.226L238.438 509.106L232.966 514.077C233.539 515.217 233.369 516.598 232.544 517.559L236.674 523.682L231.725 518.241C230.555 518.926 229.092 518.788 228.082 517.93L222.09 521.946L227.375 517.092C226.677 515.87 226.873 514.333 227.843 513.319L223.853 507.37ZM367.473 214.603L372.341 219.905C373.54 219.311 374.986 219.534 375.952 220.45L382.054 216.334L376.583 221.305C377.155 222.445 376.985 223.826 376.16 224.787L380.291 230.91L375.342 225.47C374.171 226.154 372.708 226.016 371.698 225.158L365.71 229.18L370.995 224.325C370.297 223.103 370.489 221.561 371.463 220.552L367.473 214.603ZM636.563 386.277L631.695 380.976L635.685 386.924C634.716 387.938 634.519 389.476 635.218 390.697L629.937 395.548L635.92 391.531C636.934 392.393 638.397 392.532 639.568 391.847L644.517 397.288L640.386 391.164C641.211 390.203 641.386 388.819 640.809 387.682L646.28 382.712L640.178 386.827C639.209 385.906 637.753 385.682 636.563 386.277ZM426.328 198.643L431.196 203.945C432.386 203.35 433.842 203.574 434.802 204.493L440.904 200.378L435.433 205.349C436.006 206.489 435.836 207.87 435.01 208.831L439.141 214.954L434.192 209.513C433.021 210.198 431.558 210.06 430.548 209.202L424.565 213.219L429.851 208.365C429.152 207.143 429.345 205.601 430.319 204.592L426.328 198.643Z" fill="white"/>
<path d="M148.271 307.434L144.279 318.769C143.313 318.519 142.387 318.433 141.501 318.513C140.619 318.579 139.797 318.817 139.036 319.226C138.265 319.617 137.584 320.183 136.992 320.923C136.387 321.659 135.895 322.563 135.518 323.635C134.857 325.51 134.754 327.258 135.207 328.879C135.665 330.486 136.627 331.924 138.093 333.193C139.563 334.449 141.491 335.497 143.876 336.336C146.394 337.223 148.623 337.632 150.56 337.561C152.489 337.472 154.108 336.936 155.419 335.951C156.716 334.962 157.683 333.564 158.32 331.755C158.683 330.723 158.881 329.754 158.915 328.847C158.934 327.935 158.803 327.091 158.519 326.313C158.236 325.536 157.812 324.837 157.247 324.216C156.674 323.578 155.969 323.036 155.132 322.59L159.204 311.284C160.898 312.031 162.501 313.145 164.013 314.626C165.511 316.103 166.75 317.887 167.73 319.979C168.701 322.053 169.248 324.392 169.371 326.995C169.493 329.598 169.023 332.407 167.962 335.421C166.631 339.2 164.627 342.304 161.949 344.734C159.276 347.151 156.058 348.676 152.296 349.309C148.539 349.928 144.383 349.436 139.827 347.832C135.245 346.218 131.698 343.975 129.186 341.103C126.66 338.225 125.122 335.003 124.571 331.436C124.006 327.863 124.375 324.229 125.678 320.531C126.593 317.931 127.79 315.665 129.269 313.731C130.749 311.797 132.462 310.247 134.409 309.08C136.342 307.909 138.477 307.17 140.814 306.863C143.151 306.557 145.636 306.747 148.271 307.434Z" fill="white"/>
<path d="M183.515 255.666C187.679 258.169 190.704 261.09 192.592 264.429C194.467 267.76 195.314 271.245 195.133 274.882C194.94 278.511 193.827 282.018 191.792 285.402C189.743 288.811 187.155 291.448 184.028 293.314C180.896 295.161 177.419 296.037 173.596 295.944C169.77 295.831 165.786 294.53 161.647 292.042C157.484 289.539 154.461 286.627 152.578 283.308C150.691 279.969 149.84 276.491 150.025 272.873C150.206 269.236 151.321 265.714 153.371 262.305C155.405 258.921 157.986 256.295 161.113 254.43C164.228 252.557 167.703 251.67 171.537 251.771C175.359 251.865 179.352 253.163 183.515 255.666ZM177.236 266.111C174.996 264.764 172.93 263.928 171.037 263.603C169.14 263.258 167.448 263.425 165.961 264.106C164.47 264.768 163.219 265.938 162.209 267.618C161.199 269.298 160.748 270.958 160.856 272.598C160.96 274.218 161.605 275.791 162.793 277.317C163.975 278.823 165.687 280.25 167.927 281.596C170.167 282.943 172.235 283.789 174.133 284.134C176.025 284.46 177.717 284.292 179.209 283.63C180.695 282.95 181.944 281.769 182.954 280.089C183.964 278.409 184.417 276.759 184.314 275.139C184.205 273.499 183.56 271.926 182.377 270.42C181.19 268.894 179.476 267.458 177.236 266.111Z" fill="white"/>
<path d="M222.983 242.488L211.613 254.842L179.506 225.291L190.76 213.062C193.8 209.76 197.069 207.498 200.567 206.277C204.064 205.036 207.616 204.869 211.222 205.775C214.828 206.661 218.303 208.643 221.647 211.721C224.992 214.8 227.265 218.098 228.466 221.617C229.657 225.126 229.794 228.669 228.876 232.246C227.949 235.813 225.984 239.227 222.983 242.488ZM212.236 239.314L215.295 235.991C216.757 234.402 217.746 232.813 218.264 231.223C218.79 229.623 218.696 227.953 217.98 226.214C217.275 224.464 215.803 222.559 213.567 220.501C211.33 218.442 209.306 217.139 207.494 216.591C205.691 216.032 204 216.097 202.42 216.786C200.85 217.464 199.295 218.64 197.756 220.312L194.928 223.385L212.236 239.314Z" fill="white"/>
<path d="M254.443 212.212L228.941 176.803L254.461 158.424L260.039 166.17L244.133 177.625L248.516 183.711L263.108 173.202L268.687 180.948L254.094 191.457L258.477 197.543L274.315 186.137L279.893 193.883L254.443 212.212Z" fill="white"/>
<path d="M607.334 177.132C608.032 175.889 608.208 174.673 607.862 173.482C607.528 172.298 606.565 171.172 604.974 170.102C603.96 169.42 603.046 168.985 602.231 168.797C601.436 168.605 600.747 168.612 600.163 168.818C599.579 169.025 599.103 169.389 598.734 169.912C598.417 170.332 598.228 170.778 598.167 171.251C598.126 171.72 598.211 172.23 598.421 172.783C598.64 173.323 598.986 173.915 599.46 174.559C599.935 175.204 600.542 175.903 601.284 176.659L603.827 179.292C605.545 181.064 606.884 182.777 607.842 184.432C608.801 186.086 609.417 187.69 609.691 189.244C609.972 190.785 609.933 192.282 609.573 193.734C609.224 195.195 608.592 196.618 607.677 198.005C606.064 200.379 604.113 201.994 601.825 202.852C599.536 203.709 597.007 203.831 594.236 203.218C591.476 202.612 588.564 201.279 585.499 199.218C582.352 197.102 579.919 194.789 578.199 192.281C576.491 189.78 575.639 187.128 575.642 184.323C575.665 181.514 576.689 178.59 578.714 175.553L588.05 181.83C587.364 182.978 587.015 184.096 587.003 185.183C586.99 186.27 587.302 187.309 587.936 188.301C588.582 189.3 589.53 190.22 590.779 191.06C591.828 191.765 592.794 192.226 593.675 192.442C594.557 192.659 595.335 192.66 596.01 192.446C596.684 192.232 597.225 191.834 597.633 191.252C597.994 190.691 598.136 190.084 598.06 189.434C598.004 188.78 597.692 188.022 597.124 187.161C596.564 186.288 595.711 185.253 594.565 184.054L591.481 180.851C588.743 178 586.995 175.139 586.238 172.268C585.501 169.393 586.089 166.545 588.003 163.724C589.537 161.417 591.501 159.819 593.896 158.931C596.311 158.038 598.945 157.849 601.799 158.365C604.665 158.888 607.531 160.113 610.395 162.039C613.318 164.005 615.518 166.194 616.994 168.607C618.469 171.02 619.187 173.505 619.145 176.061C619.123 178.614 618.321 181.079 616.74 183.456L607.334 177.132Z" fill="white"/>
<path d="M616.573 222.317L647.712 191.748L660.907 205.189C663.176 207.5 664.705 209.97 665.495 212.599C666.284 215.228 666.325 217.835 665.618 220.42C664.911 223.005 663.453 225.382 661.243 227.551C659.013 229.741 656.595 231.14 653.988 231.748C651.39 232.367 648.775 232.217 646.142 231.299C643.519 230.391 641.043 228.751 638.714 226.379L630.833 218.351L637.401 211.903L643.611 218.228C644.586 219.221 645.589 219.898 646.621 220.26C647.672 220.621 648.706 220.671 649.723 220.409C650.75 220.157 651.704 219.598 652.586 218.733C653.478 217.857 654.049 216.918 654.3 215.916C654.57 214.914 654.524 213.894 654.162 212.856C653.82 211.818 653.161 210.803 652.186 209.809L649.261 206.829L624.872 230.771L616.573 222.317Z" fill="white"/>
<path d="M660.022 272.889L653.086 262.15L697.556 250.574L706.342 264.176L677.501 299.951L670.565 289.212L691.947 264.038L691.762 263.752L660.022 272.889ZM673.189 261.544L686.229 281.733L678.784 286.542L665.744 266.353L673.189 261.544Z" fill="white"/>
<path d="M722.326 338.614L717.971 327.414C718.867 326.974 719.625 326.436 720.246 325.798C720.872 325.174 721.341 324.458 721.652 323.651C721.981 322.852 722.13 321.979 722.097 321.032C722.077 320.08 721.861 319.074 721.449 318.015C720.729 316.161 719.669 314.767 718.269 313.833C716.875 312.912 715.208 312.448 713.27 312.439C711.336 312.444 709.191 312.905 706.834 313.821C704.345 314.789 702.389 315.93 700.965 317.246C699.559 318.57 698.68 320.032 698.327 321.632C697.987 323.227 698.164 324.919 698.859 326.706C699.255 327.725 699.736 328.59 700.302 329.3C700.88 330.005 701.531 330.559 702.252 330.965C702.974 331.37 703.751 331.624 704.583 331.727C705.434 331.839 706.322 331.79 707.247 331.583L711.522 342.814C709.75 343.351 707.808 343.55 705.696 343.411C703.598 343.266 701.496 342.72 699.389 341.771C697.301 340.83 695.363 339.412 693.575 337.516C691.786 335.621 690.313 333.183 689.155 330.205C687.703 326.471 687.202 322.81 687.651 319.222C688.105 315.647 689.553 312.394 691.995 309.463C694.442 306.546 697.917 304.212 702.418 302.462C706.946 300.702 711.098 300.093 714.876 300.636C718.667 301.174 721.933 302.617 724.674 304.965C727.429 307.308 729.517 310.306 730.938 313.96C731.936 316.529 732.504 319.028 732.641 321.459C732.779 323.89 732.489 326.182 731.771 328.335C731.067 330.484 729.929 332.435 728.355 334.19C726.782 335.945 724.772 337.419 722.326 338.614Z" fill="white"/>
<path d="M701.557 367.753L744.578 360.452L749.84 391.457L740.429 393.054L737.149 373.728L729.755 374.983L732.764 392.713L723.353 394.31L720.344 376.581L712.95 377.835L716.216 397.077L706.805 398.675L701.557 367.753Z" fill="white"/>
<path d="M545.577 683.15L558.351 675.788L579.48 692.138L579.923 691.883L576.369 665.404L589.144 658.042L610.932 695.85L600.89 701.637L588.293 679.78L587.998 679.95L592.006 706.363L585.951 709.853L565.021 692.994L564.726 693.165L577.408 715.17L567.365 720.957L545.577 683.15Z" fill="white"/>
<path d="M518.022 738.698L505.887 742.721L505.827 696.769L521.197 691.673L548.601 728.56L536.466 732.583L517.456 705.574L517.132 705.681L518.022 738.698ZM510.339 723.108L533.152 715.544L535.941 723.958L513.128 731.521L510.339 723.108Z" fill="white"/>
<path d="M448.637 750.802L443.524 707.466L462.23 705.259C465.446 704.88 468.329 705.133 470.88 706.019C473.43 706.906 475.505 708.37 477.105 710.413C478.705 712.455 479.686 715.014 480.049 718.089C480.415 721.193 480.032 723.891 478.901 726.184C477.784 728.476 476.049 730.311 473.694 731.69C471.353 733.068 468.533 733.951 465.232 734.341L454.059 735.659L452.981 726.518L461.783 725.479C463.166 725.316 464.324 725.008 465.257 724.555C466.203 724.085 466.892 723.439 467.324 722.616C467.77 721.791 467.921 720.765 467.776 719.537C467.63 718.296 467.242 717.319 466.615 716.606C466 715.878 465.177 715.389 464.146 715.138C463.128 714.872 461.927 714.821 460.545 714.984L456.398 715.473L460.402 749.414L448.637 750.802ZM471.682 727.916L484.863 746.528L472.082 748.036L459.156 729.394L471.682 727.916Z" fill="white"/>
<path d="M411.268 721.1C411.148 720.334 410.914 719.651 410.566 719.051C410.22 718.437 409.766 717.906 409.205 717.459C408.66 716.999 408.007 716.637 407.245 716.372C406.499 716.095 405.666 715.917 404.746 715.838C402.765 715.669 401.033 715.998 399.551 716.827C398.083 717.657 396.905 718.932 396.016 720.652C395.142 722.374 394.598 724.494 394.382 727.013C394.165 729.561 394.325 731.77 394.864 733.641C395.403 735.512 396.317 736.987 397.608 738.067C398.898 739.146 400.563 739.773 402.601 739.947C404.398 740.101 405.914 739.967 407.147 739.545C408.395 739.124 409.357 738.458 410.034 737.546C410.711 736.634 411.105 735.527 411.216 734.225L413.236 734.612L403.3 733.763L404.019 725.356L423.295 727.003L422.78 733.032C422.441 736.995 421.309 740.313 419.385 742.985C417.475 745.645 414.984 747.599 411.912 748.848C408.856 750.083 405.431 750.539 401.638 750.215C397.406 749.854 393.768 748.637 390.723 746.567C387.678 744.496 385.399 741.721 383.885 738.241C382.386 734.763 381.833 730.731 382.225 726.145C382.532 722.551 383.349 719.413 384.675 716.732C386.016 714.052 387.745 711.841 389.861 710.097C391.979 708.339 394.36 707.081 397.006 706.323C399.652 705.552 402.44 705.291 405.37 705.541C407.945 705.761 410.306 706.334 412.451 707.258C414.611 708.17 416.483 709.37 418.066 710.86C419.665 712.337 420.91 714.033 421.802 715.948C422.693 717.863 423.159 719.92 423.199 722.119L411.268 721.1Z" fill="white"/>
<path d="M363.685 722.375C362.305 727.033 360.236 730.694 357.476 733.358C354.721 736.009 351.56 737.702 347.994 738.439C344.432 739.161 340.758 738.962 336.972 737.841C333.158 736.711 329.956 734.867 327.366 732.307C324.794 729.738 323.074 726.592 322.206 722.868C321.356 719.135 321.617 714.953 322.989 710.323C324.368 705.665 326.429 702.008 329.17 699.354C331.93 696.689 335.083 694.994 338.632 694.267C342.198 693.531 345.888 693.727 349.701 694.857C353.488 695.978 356.676 697.818 359.266 700.378C361.86 702.924 363.589 706.065 364.452 709.803C365.32 713.526 365.064 717.717 363.685 722.375ZM351.999 718.914C352.741 716.408 353.032 714.198 352.873 712.284C352.732 710.361 352.145 708.765 351.113 707.497C350.099 706.219 348.653 705.301 346.773 704.745C344.894 704.188 343.174 704.167 341.614 704.683C340.071 705.189 338.71 706.208 337.531 707.741C336.369 709.263 335.417 711.277 334.674 713.783C333.932 716.289 333.632 718.504 333.773 720.427C333.932 722.341 334.519 723.937 335.533 725.215C336.565 726.484 338.02 727.396 339.9 727.953C341.779 728.509 343.49 728.535 345.033 728.028C346.593 727.513 347.954 726.494 349.116 724.971C350.296 723.439 351.257 721.42 351.999 718.914Z" fill="white"/>
<path d="M261.563 704.1L282.122 665.611L298.736 674.485C301.593 676.011 303.814 677.866 305.401 680.051C306.988 682.235 307.855 684.622 308.001 687.213C308.147 689.803 307.491 692.464 306.032 695.195C304.56 697.952 302.704 699.948 300.466 701.184C298.24 702.426 295.767 702.941 293.046 702.728C290.338 702.522 287.518 701.635 284.587 700.069L274.664 694.769L279 686.65L286.819 690.826C288.046 691.482 289.173 691.89 290.198 692.052C291.242 692.207 292.177 692.07 293.002 691.641C293.839 691.219 294.549 690.463 295.132 689.373C295.721 688.27 295.961 687.247 295.853 686.304C295.764 685.354 295.368 684.483 294.665 683.688C293.982 682.888 293.026 682.16 291.798 681.504L288.114 679.537L272.012 709.682L261.563 704.1ZM293.552 698.481L293.737 721.287L282.386 715.223L282.426 692.538L293.552 698.481Z" fill="white"/>
<path d="M210.458 665.303L238.345 631.741L252.832 643.778C255.323 645.847 257.094 648.15 258.146 650.686C259.197 653.221 259.502 655.811 259.06 658.454C258.618 661.097 257.408 663.61 255.429 665.991C253.432 668.395 251.167 670.031 248.635 670.901C246.114 671.779 243.497 671.895 240.784 671.248C238.082 670.61 235.453 669.228 232.897 667.104L224.244 659.915L230.126 652.835L236.943 658.5C238.014 659.389 239.081 659.961 240.143 660.216C241.226 660.469 242.26 660.414 243.245 660.051C244.241 659.697 245.134 659.044 245.924 658.094C246.723 657.132 247.196 656.14 247.343 655.118C247.511 654.094 247.362 653.084 246.897 652.088C246.452 651.09 245.694 650.146 244.623 649.257L241.411 646.588L219.57 672.874L210.458 665.303Z" fill="white"/>
<path d="M268.092 148.146C315.983 120.749 370.077 106.036 425.247 105.401C480.418 104.766 534.836 118.23 583.345 144.518L561.168 185.442C519.628 162.932 473.027 151.402 425.783 151.945C378.539 152.489 332.216 165.089 291.205 188.55L268.092 148.146Z" fill="white"/>
<path d="M751.91 403.113C756.383 458.105 746.738 513.329 723.89 563.55C701.042 613.771 665.748 657.325 621.353 690.085L593.715 652.63C631.732 624.577 661.956 587.28 681.521 544.274C701.087 501.268 709.346 453.978 705.515 406.887L751.91 403.113Z" fill="white"/>
<path d="M196.884 655.453C158.386 615.93 130.619 567.231 116.214 513.971C101.809 460.711 101.243 404.654 114.571 351.114L159.74 362.358C148.327 408.206 148.812 456.209 161.147 501.818C173.483 547.426 197.261 589.129 230.228 622.974L196.884 655.453Z" fill="white"/>
</svg>
