<svg width="648" height="648" viewBox="0 0 648 648" fill="none" xmlns="http://www.w3.org/2000/svg">
<g clip-path="url(#clip0_266_81)">
<path d="M623.928 507.208C614.897 520.831 598.137 528.884 574.793 531.29C551.474 533.693 522.017 530.4 488.343 521.775C421.022 504.533 337.461 466.141 253.7 410.618C169.939 355.095 102.034 293.085 59.9336 237.795C38.8749 210.139 24.3696 184.29 17.501 161.877C10.6251 139.439 11.5141 120.866 20.5449 107.242C29.5757 93.6184 46.3357 85.5661 69.6798 83.1603C92.999 80.757 122.456 84.0497 156.13 92.6744C223.451 109.917 307.012 148.309 390.773 203.832C474.534 259.355 542.439 321.365 584.539 376.655C605.598 404.311 620.103 430.159 626.972 452.573C633.848 475.011 632.959 493.584 623.928 507.208Z" stroke="white" stroke-width="5.55429"/>
<path d="M623.928 562.751C614.897 576.374 598.137 584.427 574.793 586.833C551.474 589.236 522.017 585.943 488.343 577.318C421.022 560.076 337.461 521.684 253.7 466.161C169.939 410.638 102.034 348.628 59.9336 293.338C38.8749 265.682 24.3696 239.833 17.501 217.42C10.6251 194.982 11.5141 176.409 20.5449 162.785C29.5757 149.161 46.3357 141.109 69.6798 138.703C92.999 136.3 122.456 139.593 156.13 148.217C223.451 165.46 307.012 203.852 390.773 259.375C474.534 314.898 542.439 376.908 584.539 432.198C605.598 459.854 620.103 485.702 626.972 508.116C633.848 530.554 632.959 549.127 623.928 562.751Z" stroke="white" stroke-width="5.55429"/>
<path fill-rule="evenodd" clip-rule="evenodd" d="M335.297 6.64842L402.699 207.009C399.92 205.129 397.123 203.256 394.308 201.39C355.118 175.412 315.951 153.161 278.439 135.054L325.859 0.272464L335.297 6.64842ZM427.11 279.574L412.589 236.407C403.32 229.809 393.812 223.274 384.079 216.822C346.132 191.668 308.342 170.158 272.255 152.63L261.667 182.726C304.195 202.109 349.237 227.056 394.308 256.933C405.532 264.373 416.474 271.931 427.11 279.574ZM437.412 310.198L504.232 508.827C500.961 508.078 497.633 507.27 494.249 506.403C434.067 490.99 359.622 457.848 283.491 409.735L325.859 365.966L332.126 372.342L390.701 433.372L329.709 238.696C347.682 249.054 365.863 260.29 384.079 272.365C402.717 284.719 420.531 297.382 437.412 310.198ZM325.852 236.484L271.977 402.352C269.451 400.709 266.924 399.05 264.396 397.374C242.362 382.768 221.48 367.732 201.929 352.52L255.497 200.263C278.284 210.705 301.872 222.809 325.852 236.484ZM524.258 568.358C514.834 566.784 504.815 564.652 494.249 561.946C429.043 545.246 347.092 507.733 264.396 452.917C236.518 434.437 210.484 415.27 186.657 395.926L195.456 370.917C213.98 385.145 233.6 399.172 254.167 412.806C258.132 415.434 262.096 418.024 266.059 420.575L262.554 431.365L270.343 423.319C357.921 479.115 444.262 515.977 511.094 529.227L524.258 568.358ZM180.14 414.452L123.732 574.779L192.675 646.509L320.42 508.817C298.541 496.573 276.357 483.058 254.167 468.348C227.834 450.893 203.055 432.792 180.14 414.452ZM336.442 517.586C402.545 552.952 465.162 576.368 515.928 585.693L457.476 646.509L336.442 517.586Z" fill="white"/>
<path d="M335.76 8.10056L444.493 331.279L358.401 324.799L327.926 232.977L290.825 324.799L212.139 324.799L326.322 1.72461L335.76 8.10056Z" fill="white"/>
</g>
<defs>
<clipPath id="clip0_266_81">
<rect width="648" height="648" fill="white"/>
</clipPath>
</defs>
</svg>
